REM DIRINDEX 1\2\4,1\2\5,1\2\6,1\3\7,1\3\8,1\3\9,1\3\10
REM DIRNAME cjc057,folder01,folder02,folder03,folder04,folder05,folder06,folder07,folder08,folder09
TITLE ""
FILE "b_158.mp3" MP3
  TRACK 01 AUDIO
    TITLE "0:"
    INDEX 01 00:00:00
  TRACK 02 AUDIO
    TITLE "7:cjc057_09052"
    INDEX 01 00:00:15
  TRACK 03 AUDIO
    TITLE "0:"
    INDEX 01 00:01:24
  TRACK 04 AUDIO
    TITLE "8:cjc057_09053"
    INDEX 01 00:01:56
  TRACK 05 AUDIO
    TITLE "0:"
    INDEX 01 00:03:08
  TRACK 06 AUDIO
    TITLE "9:cjc057_09054"
    INDEX 01 00:03:51
  TRACK 07 AUDIO
    TITLE "0:"
    INDEX 01 00:07:23
  TRACK 08 AUDIO
    TITLE "7:cjc057_09055"
    INDEX 01 00:08:32
  TRACK 09 AUDIO
    TITLE "0:"
    INDEX 01 00:09:47
  TRACK 10 AUDIO
    TITLE "8:cjc057_09056"
    INDEX 01 00:10:06
  TRACK 11 AUDIO
    TITLE "0:"
    INDEX 01 00:12:36
  TRACK 12 AUDIO
    TITLE "9:cjc057_09057"
    INDEX 01 00:13:04
  TRACK 13 AUDIO
    TITLE "0:"
    INDEX 01 00:16:42
  TRACK 14 AUDIO
    TITLE "7:cjc057_09058"
    INDEX 01 00:17:51
  TRACK 15 AUDIO
    TITLE "0:"
    INDEX 01 00:19:11
  TRACK 16 AUDIO
    TITLE "8:cjc057_09059"
    INDEX 01 00:19:46
  TRACK 17 AUDIO
    TITLE "0:"
    INDEX 01 00:22:23
  TRACK 18 AUDIO
    TITLE "9:cjc057_09060"
    INDEX 01 00:22:68
  TRACK 19 AUDIO
    TITLE "0:"
    INDEX 01 00:26:28
  TRACK 20 AUDIO
    TITLE "7:cjc057_09061"
    INDEX 01 00:27:38
  TRACK 21 AUDIO
    TITLE "0:"
    INDEX 01 00:28:53
  TRACK 22 AUDIO
    TITLE "8:cjc057_09062"
    INDEX 01 00:29:11
  TRACK 23 AUDIO
    TITLE "0:"
    INDEX 01 00:30:54
  TRACK 24 AUDIO
    TITLE "9:cjc057_09063"
    INDEX 01 00:31:26
  TRACK 25 AUDIO
    TITLE "0:"
    INDEX 01 00:35:49
  TRACK 26 AUDIO
    TITLE "7:cjc057_09064"
    INDEX 01 00:36:56
  TRACK 27 AUDIO
    TITLE "0:"
    INDEX 01 00:38:06
  TRACK 28 AUDIO
    TITLE "8:cjc057_09065"
    INDEX 01 00:38:39
  TRACK 29 AUDIO
    TITLE "0:"
    INDEX 01 00:40:28
  TRACK 30 AUDIO
    TITLE "9:cjc057_09066"
    INDEX 01 00:41:00
  TRACK 31 AUDIO
    TITLE "0:"
    INDEX 01 00:43:19
  TRACK 32 AUDIO
    TITLE "7:cjc057_09067"
    INDEX 01 00:44:24
  TRACK 33 AUDIO
    TITLE "0:"
    INDEX 01 00:45:28
  TRACK 34 AUDIO
    TITLE "8:cjc057_09068"
    INDEX 01 00:45:63
  TRACK 35 AUDIO
    TITLE "0:"
    INDEX 01 00:48:63
  TRACK 36 AUDIO
    TITLE "9:cjc057_09069"
    INDEX 01 00:49:31
  TRACK 37 AUDIO
    TITLE "0:"
    INDEX 01 00:52:10
  TRACK 38 AUDIO
    TITLE "7:cjc057_09070"
    INDEX 01 00:53:19
  TRACK 39 AUDIO
    TITLE "0:"
    INDEX 01 00:54:38
  TRACK 40 AUDIO
    TITLE "8:cjc057_09071"
    INDEX 01 00:54:68
  TRACK 41 AUDIO
    TITLE "0:"
    INDEX 01 00:57:33
  TRACK 42 AUDIO
    TITLE "9:cjc057_09072"
    INDEX 01 00:58:03
  TRACK 43 AUDIO
    TITLE "0:"
    INDEX 01 01:03:08
  TRACK 44 AUDIO
    TITLE "7:cjc057_09073"
    INDEX 01 01:04:15
  TRACK 45 AUDIO
    TITLE "0:"
    INDEX 01 01:05:22
  TRACK 46 AUDIO
    TITLE "8:cjc057_09074"
    INDEX 01 01:05:56
  TRACK 47 AUDIO
    TITLE "0:"
    INDEX 01 01:09:12
  TRACK 48 AUDIO
    TITLE "9:cjc057_09075"
    INDEX 01 01:09:56
  TRACK 49 AUDIO
    TITLE "0:"
    INDEX 01 01:12:36
  TRACK 50 AUDIO
    TITLE "7:cjc057_09076"
    INDEX 01 01:13:44
  TRACK 51 AUDIO
    TITLE "0:"
    INDEX 01 01:15:25
  TRACK 52 AUDIO
    TITLE "8:cjc057_09077"
    INDEX 01 01:15:56
  TRACK 53 AUDIO
    TITLE "0:"
    INDEX 01 01:18:39
  TRACK 54 AUDIO
    TITLE "9:cjc057_09078"
    INDEX 01 01:19:09
  TRACK 55 AUDIO
    TITLE "0:"
    INDEX 01 01:22:09
  TRACK 56 AUDIO
    TITLE "7:cjc057_09079"
    INDEX 01 01:23:15
  TRACK 57 AUDIO
    TITLE "0:"
    INDEX 01 01:24:39
  TRACK 58 AUDIO
    TITLE "8:cjc057_09080"
    INDEX 01 01:24:73
  TRACK 59 AUDIO
    TITLE "0:"
    INDEX 01 01:27:40
  TRACK 60 AUDIO
    TITLE "9:cjc057_09081"
    INDEX 01 01:28:10
  TRACK 61 AUDIO
    TITLE "0:"
    INDEX 01 01:31:71
  TRACK 62 AUDIO
    TITLE "7:cjc057_09082"
    INDEX 01 01:33:05
  TRACK 63 AUDIO
    TITLE "0:"
    INDEX 01 01:34:26
  TRACK 64 AUDIO
    TITLE "8:cjc057_09083"
    INDEX 01 01:34:59
  TRACK 65 AUDIO
    TITLE "0:"
    INDEX 01 01:36:70
  TRACK 66 AUDIO
    TITLE "9:cjc057_09084"
    INDEX 01 01:37:38
  TRACK 67 AUDIO
    TITLE "0:"
    INDEX 01 01:40:60
  TRACK 68 AUDIO
    TITLE "7:cjc057_09085"
    INDEX 01 01:41:65
  TRACK 69 AUDIO
    TITLE "0:"
    INDEX 01 01:43:25
  TRACK 70 AUDIO
    TITLE "8:cjc057_09086"
    INDEX 01 01:43:52
  TRACK 71 AUDIO
    TITLE "0:"
    INDEX 01 01:46:27
  TRACK 72 AUDIO
    TITLE "9:cjc057_09087"
    INDEX 01 01:46:72
  TRACK 73 AUDIO
    TITLE "0:"
    INDEX 01 01:50:17
